<svg width="1440" height="1024" viewBox="0 0 1440 1024" fill="none" xmlns="http://www.w3.org/2000/svg">
<path d="M-48.874 848.727C448.16 807.137 798.945 674.852 1028.83 560.327C1261.3 444.512 1428.72 317.464 1734.65 249.159C2072.08 173.264 2292.55 207.265 2379.76 226.39C2500.66 252.953 2493.14 271.016 2690.92 332.643C3070.85 451.039 3143.03 398.368 3313.26 476.843C3595.51 606.926 3511.35 804.329 3806.58 1023.29C4020.37 1181.91 4374.34 1308.12 4694.54 1220.61C4996.07 1138.19 5030 931.225 5347.24 901.853C5477.55 889.786 5585.93 916.577 5802.61 970.159C6080.3 1038.46 6266.78 1122.71 6341.46 1152.31C6562.69 1240.12 6919.78 1295.37 7502.65 1121.95" stroke="white" stroke-opacity="0.59" stroke-width="5" stroke-miterlimit="10"/>
<path d="M-52.2129 915.666C428.58 879.768 788.017 760.006 1038.77 641.307C1242.47 543.554 1397.83 436.391 1611.93 359.813C1658.76 343.116 1708.09 326.951 1761.21 312.986C2095.99 225.1 2315.63 239.596 2407.31 248.475C2530.26 260.315 2530.26 273.824 2724.09 333.705C2860.7 375.827 2958 399.885 3033.36 415.672C3161.47 442.462 3225.6 444.284 3326.69 495.816C3364.41 514.887 3399.81 538.239 3432.19 565.412C3581.93 691.018 3575.55 850.245 3823.96 1019.03C4040.18 1165.97 4391.8 1277.08 4706.54 1190.18C4731.47 1183.28 4756.04 1175.12 4780.15 1165.74C5023.47 1070.95 5078.12 904.206 5356.95 878.022C5386.34 875.221 5415.88 874.384 5445.37 875.518C5544.49 879.009 5646.95 903.751 5809.21 943.823C6078.03 1010.61 6261.62 1093.26 6343.96 1125.97C6404.28 1149.71 6466.48 1168.34 6529.91 1181.68C6749.39 1228.43 7059.65 1233.29 7496.12 1113.98" stroke="white" stroke-opacity="0.59" stroke-width="5" stroke-miterlimit="10"/>
<path d="M-55.5527 988.525C408.923 958.168 777.391 851.915 1048.71 727.599C1264.18 628.936 1426.75 516.232 1636.9 435.784C1684.86 417.341 1734.58 398.671 1787.93 382.657C2120.04 282.704 2338.54 270.637 2435.08 276.405C2559.47 283.994 2567.75 282.552 2757.33 340.612C2890.07 381.367 2986.99 408.917 3060.91 428.27C3185.45 460.677 3245.33 467.204 3339.9 520.71C3375.93 541.316 3409.8 565.497 3440.99 592.886C3585.65 717.657 3592.78 867.322 3841.49 1020.93C4060.14 1156.1 4409.41 1252.11 4718.68 1165.82C4744.86 1158.23 4769.07 1150.64 4791.76 1141.53C5042.75 1044.99 5098.3 885.992 5366.9 860.719C5396.05 857.848 5425.35 856.91 5454.63 857.911C5555.42 860.87 5657.72 884.929 5816.04 924.622C6076.05 989.588 6256.61 1070.87 6346.7 1105.93C6406.53 1129.46 6468.15 1148.14 6530.97 1161.79C6748.48 1209.61 7057.3 1219.7 7489.44 1112.23" stroke="white" stroke-opacity="0.59" stroke-width="5" stroke-miterlimit="10"/>
<path d="M-58.8164 1066.32C389.342 1041.8 766.614 948.074 1058.73 819.204C1285.66 719.023 1455.66 601.159 1661.72 516.764C1710.9 496.576 1761.06 475.477 1814.49 457.338C2143.95 345.469 2360.93 322.018 2462.71 309.267C2588.62 293.557 2605.09 296.213 2790.5 352.451C2919.52 391.689 3016.06 422.806 3088.92 445.726C3209.82 483.673 3265.6 495.058 3353.64 550.461C3387.71 572.636 3419.85 597.644 3449.72 625.217C3589.29 749.077 3610.39 889.103 3858.79 1027.46C4080.18 1150.86 4426.79 1231.84 4730.59 1146.08C4756.55 1138.49 4780.61 1130.9 4803.15 1122.02C5061.65 1023.36 5118.34 872.406 5376.53 847.285C5405.48 844.345 5434.58 843.305 5463.66 844.174C5566.12 846.526 5668.58 870.054 5822.72 908.988C6073.78 972.056 6251.45 1051.9 6349.2 1089.92C6408.67 1113.09 6469.78 1131.78 6532.03 1145.86C6747.57 1194.73 7054.94 1210.14 7482.69 1114.43" stroke="white" stroke-opacity="0.59" stroke-width="5" stroke-miterlimit="10"/>
<path d="M-62.1553 1144.26C369.761 1125.44 755.686 1044.38 1068.68 910.885C1307.14 809.11 1484.5 686.009 1686.61 597.819C1736.93 575.885 1787.47 552.282 1841.13 532.094C2167.93 408.537 2382.94 366.492 2490.41 342.357C2617.38 313.821 2642.2 310.102 2823.74 364.518C2949.35 402.466 3045.05 436.922 3116.69 463.182C3233.95 506.593 3285.56 522.987 3367.15 580.211C3399.19 603.904 3429.62 629.715 3458.22 657.472C3592.78 780.27 3627.84 910.733 3876.02 1034.29C4100.14 1145.85 4444.02 1211.88 4742.43 1126.73C4768.09 1119.14 4791.99 1111.55 4814.46 1102.82C5080.54 1002.11 5138.22 859.959 5386.1 834.535C5414.84 831.633 5443.73 830.493 5472.62 831.119C5576.59 832.941 5678.75 855.861 5829.32 894.036C6071.58 955.359 6246.29 1033.83 6351.7 1074.59C6410.75 1097.53 6471.33 1116.27 6533.02 1130.68C6746.66 1180.69 7052.59 1201.26 7476.01 1117.47" stroke="white" stroke-opacity="0.59" stroke-width="5" stroke-miterlimit="10"/>
<path d="M-65.3428 1194.5C350.332 1181.37 744.985 1113.07 1078.77 974.94C1328.69 871.495 1513.49 742.93 1711.66 651.249C1763.04 627.494 1814.11 601.69 1867.92 579.225C2191.92 443.98 2405.18 383.72 2518.04 347.67C2646.15 306.838 2679.77 296.137 2856.91 348.808C2954.73 378.001 3050.75 412.922 3144.47 453.391C3258.31 502.192 3305.6 523.746 3380.5 582.412C3413.21 608.141 3439.17 635.539 3467.25 662.178C3596.8 783.609 3645.91 905.041 3893.63 1013.42C4120.7 1113.07 4461.7 1164.22 4754.65 1079.67C4780.08 1072.09 4803.83 1064.5 4826.15 1055.92C5099.9 953.386 5158.56 818.749 5396.11 794.083C5424.63 791.172 5453.29 789.956 5481.95 790.44C5587.6 791.882 5689.6 813.967 5836.08 851.156C6069.45 910.505 6241.28 987.766 6354.28 1031.25C6412.95 1053.95 6473.07 1072.71 6534.23 1087.42C6745.9 1138.57 7050.32 1164.45 7469.41 1092.43" stroke="white" stroke-opacity="0.59" stroke-width="5" stroke-miterlimit="10"/>
<path d="M-68.834 1230.33C330.524 1222.74 733.904 1167.11 1088.56 1024.5C1349.94 919.385 1542.03 785.203 1736.4 690.562C1788.92 664.91 1840.37 636.829 1894.41 612.239C2215.98 465.534 2427.57 387.135 2545.74 339.018C2674.76 286.271 2717.11 268.208 2890.15 319.058C2987.11 347.554 3081.46 384.268 3172.17 428.801C3282.3 482.838 3325.56 509.705 3393.94 570.421C3424.29 597.212 3448.2 625.748 3476.05 652.691C3600.67 773.364 3663.89 884.322 3911.01 978.355C4141.2 1065.94 4479.23 1102.37 4766.72 1018.35C4791.84 1010.76 4815.37 1003.17 4837.68 994.749C5119.1 890.621 5178.98 763.725 5405.91 739.97C5434.21 736.983 5462.67 735.665 5491.13 736.023C5598.3 736.934 5700.3 758.336 5842.76 795.069C6067.25 852.674 6236.12 928.492 6356.87 974.864C6415.13 997.271 6474.72 1016.05 6535.29 1031.1C6745.07 1083.39 7048.04 1114.59 7462.8 1054.25" stroke="white" stroke-opacity="0.59" stroke-width="5" stroke-miterlimit="10"/>
<path d="M-72.0977 1266.68C310.943 1264.93 722.899 1221.67 1098.58 1074.59C1371.34 967.73 1570.64 827.78 1761.21 729.724C1814.87 702.023 1866.86 671.665 1921.05 645.101C2240.03 487.089 2450.11 390.854 2573.36 330.138C2704.13 265.779 2754.45 240.127 2923.31 289.155C3019.57 317.353 3112.36 356.252 3199.95 405.122C3306.2 464.244 3345.52 496.727 3407.45 558.961C3435.22 586.89 3457.23 616.337 3484.78 643.811C3604.54 763.194 3682.11 864.286 3928.46 943.823C4161.84 1019.19 4496.69 1040.97 4778.48 957.636C4803.38 950.047 4826.75 942.457 4848.91 934.109C5138 827.856 5198.56 708.929 5415.47 685.326C5443.55 682.337 5471.77 680.918 5500.01 681.076C5608.85 681.076 5710.7 702.174 5849.13 738.3C6064.82 793.931 6230.65 868.536 6359.14 917.564C6417 939.78 6476.09 958.633 6536.13 974.029C6743.93 1027.16 7045.46 1063.66 7455.82 1015.32" stroke="white" stroke-opacity="0.59" stroke-width="5" stroke-miterlimit="10"/>
<path d="M-75.4365 1303.19C291.363 1307.13 711.971 1276.39 1108.52 1124.83C1392.75 1016.23 1599.26 870.433 1786.11 769.417C1840.75 739.894 1893.35 707.487 1947.61 678.343C2264.09 509.022 2472.8 394.952 2601.07 321.638C2733.43 245.743 2791.79 212.35 2956.56 259.556C3052.08 287.428 3143.32 328.287 3227.73 380.988C3330.72 445.271 3365.4 483.37 3420.88 547.121C3446.15 576.265 3466.42 606.471 3493.59 634.476C3608.49 752.644 3700.25 843.642 3945.84 908.912C4182.56 971.829 4514.14 979.266 4790.7 896.465C4815.37 888.876 4838.59 881.286 4860.6 873.165C5157.43 765.319 5218.82 653.981 5425.49 630.833C5453.37 627.838 5481.39 626.318 5509.43 626.28C5619.85 625.597 5721.93 646.24 5856.19 681.607C6062.93 735.416 6225.87 808.731 6362.03 860.491C6419.46 882.555 6478.03 901.53 6537.5 917.336C6743.4 971.829 7043.48 1013.34 7449.52 976.838" stroke="white" stroke-opacity="0.59" stroke-width="5" stroke-miterlimit="10"/>
<path d="M-78.7764 1339.54C271.781 1348.95 701.193 1330.66 1118.61 1174.7C1414.6 1064.27 1627.87 912.555 1811.15 808.731C1866.86 777.158 1919.99 742.702 1974.4 711.433C2288.3 531.032 2495.72 399.202 2628.92 312.91C2763.18 225.859 2829.36 184.42 2989.95 229.805C3084.81 257.581 3174.52 300.593 3255.58 357.157C3355 426.373 3385.36 470.392 3434.39 535.585C3457.16 565.943 3475.45 596.832 3502.69 625.445C3612.89 742.323 3718.99 822.771 3963.68 874.228C4203.73 924.546 4531.98 917.791 4803.15 835.597C4827.51 828.008 4850.58 820.418 4872.52 812.829C5177.01 703.313 5239.32 599.565 5435.58 577.024C5463.3 573.87 5491.17 572.248 5519.06 572.167C5631.08 571.408 5732.78 590.913 5863.4 625.293C6061.26 677.281 6221.24 749.305 6365.14 803.797C6417.13 823.53 6474.73 843.035 6539.16 860.491C6743.09 916.046 7041.74 962.873 7443.37 938.131" stroke="white" stroke-opacity="0.59" stroke-width="5" stroke-miterlimit="10"/>
<path d="M-82.1152 1374.83C251.821 1390.01 689.961 1384.24 1128.4 1223.95C1435.47 1111.7 1656.1 953.917 1835.9 847.361C1892.59 813.74 1946.32 777.31 2000.89 743.765C2312.51 552.282 2518.8 402.77 2656.39 303.575C2792.55 204.912 2866.47 155.884 3022.96 199.447C3117.27 227.152 3205.56 272.25 3283.28 332.415C3379.29 406.64 3404.71 456.655 3447.75 523.139C3468.01 554.711 3484.48 586.359 3511.12 615.503C3616.61 730.938 3736.98 801.293 3980.68 838.633C4224.38 875.973 4549.05 855.33 4814.76 773.743C4838.9 766.154 4861.82 758.564 4883.6 750.975C5195.83 639.789 5259.05 543.63 5445.22 521.621C5472.66 518.415 5500.25 516.718 5527.87 516.536C5641.71 515.094 5743.11 534.067 5869.39 567.992C6058.45 618.083 6215.4 688.893 6367.04 746.042C6418.8 765.622 6475.94 785.051 6539.62 802.887C6741.58 859.504 7038.78 911.568 7436.09 898.742" stroke="white" stroke-opacity="0.59" stroke-width="5" stroke-miterlimit="10"/>
<path d="M-85.3789 1409.67C232.544 1430.69 678.956 1437.14 1138.42 1272.6C1457.18 1158.76 1684.41 994.521 1860.71 885.536C1918.47 849.79 1972.81 811.463 2027.68 775.64C2336.88 573.001 2542.1 406.033 2684.02 293.481C2822.37 184.041 2904.11 126.513 3055.9 168.331C3156.69 196.108 3248.22 253.56 3310.83 306.914C3403.5 385.997 3424.67 442.159 3461.03 509.933C3478.64 542.719 3493.36 575.126 3519.62 604.877C3620.48 718.719 3754.89 778.6 3997.76 802.204C4244.64 826.414 4566.21 792.109 4826.45 711.13C4850.28 703.54 4873.05 695.951 4894.75 688.361C5214.65 575.43 5278.71 486.861 5454.4 465.459C5481.63 462.205 5509.02 460.407 5536.44 460.07C5651.73 457.869 5753.12 476.387 5875.85 509.629C6056.02 557.898 6209.78 627.418 6369.16 687.299C6420.69 706.652 6477.39 726.157 6540.23 744.22C6740.29 801.976 7036.05 859.276 7428.95 858.062" stroke="white" stroke-opacity="0.59" stroke-width="5" stroke-miterlimit="10"/>
<path d="M-88.7188 1444.05C212.963 1470.84 667.648 1488.67 1148.36 1320.72C1477.98 1204.14 1712.64 1034.59 1885.61 922.952C1944.27 885.005 1999.45 844.857 2054.17 806.757C2361.24 593.417 2565.47 408.386 2711.72 283.083C2852.35 162.563 2941.07 96.9895 3089.37 136.91C3186.59 163.322 3277.67 223.81 3338.84 281.11C3428.17 365.05 3444.25 427.284 3474.69 496.424C3489.87 530.425 3502.69 563.439 3528.65 593.797C3624.88 706.424 3773.56 755.301 4015.51 765.85C4265.97 776.703 4584.04 728.965 4838.82 648.517C4862.45 640.978 4885.04 633.388 4906.59 625.748C5234.31 511.299 5299.2 430.168 5464.57 409.372C5491.57 406.032 5518.73 404.132 5545.93 403.68C5662.81 400.872 5764.2 418.859 5882.98 451.342C6054.2 497.714 6205.15 566.323 6372.35 628.632C6423.65 647.91 6479.81 667.263 6541.97 685.629C6740.06 744.524 7034.38 807.061 7422.96 817.838" stroke="white" stroke-opacity="0.59" stroke-width="5" stroke-miterlimit="10"/>
<path d="M-92.0576 1477.89C193.306 1510.3 656.719 1540.66 1158.31 1368.3C1499.38 1249.98 1740.95 1073.91 1910.5 960.065C1970.08 920.068 2025.86 877.947 2080.81 837.571C2385.68 613.377 2589.3 410.587 2739.35 272.079C2882.41 140.401 2978.41 66.4798 3122.23 104.655C3215.96 129.624 3306.66 193.224 3366.24 254.623C3452.38 343.42 3463.38 411.877 3487.67 482.307C3499.96 517.598 3511.42 551.296 3536.92 582.185C3629.13 693.295 3792 738.831 4032.97 728.586C4286.31 717.809 4601.57 664.91 4850.96 585.069C4874.34 577.53 4896.75 569.94 4918.21 562.3C5253.81 446.788 5319.39 372.563 5474.44 352.375C5501.24 349.007 5528.19 347.031 5555.19 346.456C5673.66 343.116 5775.28 360.42 5889.73 391.992C6051.77 436.922 6200.07 504.696 6374.93 569.283C6426.01 588.408 6481.71 607.761 6543.04 626.431C6739.22 686.464 7032.1 754.238 7416.28 776.855" stroke="white" stroke-opacity="0.59" stroke-width="5" stroke-miterlimit="10"/>
<path d="M-95.7012 1511.36C173.421 1549.31 645.486 1592.34 1167.95 1415.51C1520.48 1295.44 1768.5 1112.92 1935.01 996.494C1995.73 954.297 2052.12 910.43 2107.07 867.473C2409.89 632.199 2612.37 412.105 2766.74 260.315C2912.54 117.633 3015.98 35.8183 3155.78 72.096C3245.94 95.6234 3336.26 162.259 3394.32 227.756C3477.27 321.259 3482.96 395.939 3501.55 467.584C3511.12 504.165 3521.06 538.469 3546.18 570.042C3633.46 679.634 3809.84 706.652 4050.35 690.866C4307.02 674.245 4618.95 600.399 4862.88 521.165C4885.65 513.576 4908.41 505.986 4929.59 498.397C5272.86 381.14 5339.42 314.428 5484.15 294.923C5510.72 291.463 5537.44 289.386 5564.22 288.7C5684.29 284.753 5785.53 301.526 5896.34 332.491C6049.87 375.22 6194.91 441.324 6377.43 509.022C6428.36 527.996 6483.68 546.97 6544.4 566.323C6738.61 627.039 7030.13 700.429 7409.6 734.885" stroke="white" stroke-opacity="0.59" stroke-width="5" stroke-miterlimit="10"/>
<path d="M-98.6602 1544.45C154.145 1588.25 634.786 1643.65 1178.27 1462.41C1542.56 1340.6 1796.81 1151.24 1959.98 1032.77C2021.31 988.298 2078.83 942.761 2133.78 897.679C2435.01 652.387 2636.2 413.471 2794.07 248.627C2942.21 94.485 3052.49 4.77742 3188.72 39.3854C3275.31 61.4708 3365.4 131.142 3421.87 200.662C3501.71 299.325 3501.94 379.773 3514.84 452.784C3521.44 490.732 3530.02 525.567 3554.68 557.747C3637.56 665.821 3827.9 681.303 4067.5 652.995C4327.29 622.637 4636.26 535.737 4874.64 457.034C4897.41 449.445 4919.65 441.855 4940.82 434.873C5291.84 315.87 5359.15 256.444 5493.64 237.547C5520.18 234.136 5546.88 232.11 5573.63 231.475C5684.97 227.282 5796.24 241.383 5903.02 273.217C6047.67 314.124 6189.75 378.939 6380.01 449.369C6430.71 468.115 6485.51 487.316 6545.24 506.745C6824.47 596.1 7111.59 658.642 7402.69 693.522" stroke="white" stroke-opacity="0.59" stroke-width="5" stroke-miterlimit="10"/>
<path d="M-102 1577.32C134.564 1626.8 623.857 1694.73 1188.21 1509.01C1563.66 1385.45 1824.66 1189.72 1985.1 1068.82C2697.22 531.715 2922.63 -68.1575 3222.19 6.29528C3305.22 26.9387 3395.08 99.6458 3449.87 173.264C3566.9 330.366 3493.13 449.521 3563.71 545.148C3736.75 779.663 4515.13 517.75 4952.59 370.59C5379.11 227.073 5394.9 180.853 5582.51 173.264C5910 159.83 6080.23 291.356 6546.37 446.485C6823.53 538.277 7107.86 606.82 7396.39 651.401" stroke="white" stroke-opacity="0.59" stroke-width="5" stroke-miterlimit="10"/>
<path d="M-102 1599.02C140.863 1653.14 614.977 1715.14 1154.51 1537.4C1526.93 1414.37 1776.85 1216.74 1949.05 1089.62C2636.96 582.412 2851.52 33.0862 3156.69 82.1142C3275.92 101.24 3396.97 139.567 3476.89 198.309C3633.92 313.821 3575.55 417.114 3666.63 509.478C3866 711.813 4592.01 484.66 5008.52 349.643C5414.25 217.662 5430.65 180.322 5628.96 187.911C5958.49 200.51 6120.98 316.933 6560.11 465.838C6834.08 558.691 7116.19 625.546 7402.69 665.517" stroke="white" stroke-opacity="0.59" stroke-width="5" stroke-miterlimit="10"/>
<path d="M-102 1621.64C303.021 1714.88 725.804 1695.85 1120.82 1566.62C1490.19 1444.2 1728.58 1244.52 1913 1111.25C2575.79 632.655 2783.29 125.678 3091.27 158.768C3247.54 175.616 3394.47 179.867 3503.91 224.265C3691.67 300.16 3655.09 384.403 3769.54 474.718C3988.19 647.075 4668.89 452.405 5064.53 329.531C5448.79 209.086 5465.86 179.867 5675.48 203.394C6006.23 240.431 6161.74 344.103 6573.85 486.102C6844.56 579.951 7124.37 645.122 7408.69 680.544" stroke="white" stroke-opacity="0.59" stroke-width="5" stroke-miterlimit="10"/>
<path d="M-102 1661.86C291.228 1756.22 702.939 1739.45 1087.19 1613.44C1453.46 1491.56 1680.39 1289.83 1876.95 1150.48C2513.25 699.518 2717.26 288.472 3025.77 253.029C3218.77 230.868 3389.46 239.975 3531 267.753C3744.87 309.647 3732.43 369.376 3872.53 457.49C4104.46 603.359 4745.92 438.516 5120.47 327.027C5483.85 218.877 5500.77 196.336 5721.93 236.408C6053.74 296.517 6202.42 388.729 6587.66 523.898C6855.14 618.855 7132.76 682.376 7414.91 713.179" stroke="white" stroke-opacity="0.59" stroke-width="5" stroke-miterlimit="10"/>
<path d="M-102 1723.11C279.404 1818.53 680.037 1803.95 1053.5 1681.06C1416.73 1559.63 1632.12 1355.86 1840.9 1210.52C2450.26 786.342 2652.14 414.533 2960.35 368.086C3189.32 333.629 3391.51 280.958 3558.02 332.036C3787.15 402.314 3795.72 407.171 3975.44 461.057C4191.67 625.065 4822.88 445.195 5176.48 345.317C5518.76 248.931 5535.61 232.993 5768.45 290.293C6101.1 372.184 6243.02 454.454 6601.4 582.488C6865.66 678.523 7141.11 740.373 7421.06 766.533" stroke="white" stroke-opacity="0.59" stroke-width="5" stroke-miterlimit="10"/>
<path d="M-102 1785.8C267.562 1882.35 657.139 1870.18 1019.95 1750.74C1380.15 1629.91 1583.92 1423.86 1805.01 1272.6C2386.81 874.455 2586.42 538.469 2894.55 485.191C3160.18 439.351 3381.19 366.644 3585.19 398.443C3848.24 439.427 3871.54 423.337 4078.51 466.749C4305.36 612.694 4899.76 453.315 5232.11 365.657C5553.29 281.034 5570.14 270.94 5814.6 346.228C6148.53 448.838 6283.25 522.38 6614.83 643.128C6875.88 740.248 7149.21 800.432 7426.9 821.936" stroke="white" stroke-opacity="0.59" stroke-width="5" stroke-miterlimit="10"/>
<path d="M-102 1849.7C255.636 1947.19 634.051 1937.29 986.102 1821.24C1343.26 1700.95 1535.28 1492.62 1768.8 1335.52C2322.84 962.797 2520.16 660.812 2829.43 603.132C3130.96 546.894 3374.81 500.75 3612.06 465.61C3905.01 422.198 3947.06 440.186 4181.27 473.2C4419.12 601.538 4976.64 462.575 5288.42 386.832C5588.51 313.973 5605.36 309.267 5861.42 402.997C6195.97 525.491 6324 591.444 6628.57 704.679C6886.42 802.846 7157.66 861.368 7433.05 878.25" stroke="white" stroke-opacity="0.59" stroke-width="5" stroke-miterlimit="10"/>
<path d="M-102 1914.44C180.556 1996.18 562.078 2023.73 952.481 1892.66C1306.83 1773.66 1486.78 1562.14 1732.75 1399.34C2258.48 1051.44 2453.75 782.319 2763.93 721.983C3102.12 656.258 3371.09 591.975 3639.15 533.688C3960.19 463.789 4030.01 414.988 4284.26 480.562C4547.69 548.487 5053.53 472.972 5344.35 408.917C5623.34 347.746 5640.34 348.201 5907.87 460.601C6244.09 602.297 6364.45 661.571 6642.68 767.064C6815.65 832.637 7076.57 918.398 7439.58 935.399" stroke="white" stroke-opacity="0.59" stroke-width="5" stroke-miterlimit="10"/>
<path d="M-102 1980.32C187.159 2066.53 553.199 2088.32 918.783 1965.14C1270.1 1846.74 1438.13 1632.49 1696.7 1464.23C2193.74 1140.69 2386.21 903.675 2698.51 841.897C3073.43 767.671 3368.06 684.718 3666.17 602.828C4016.12 506.669 4103.48 433.507 4387.17 488.986C4657.58 542.112 5130.33 483.825 5400.36 432.065C5658.41 382.581 5676.01 387.135 5954.4 519.344C6292.28 679.709 6404.75 733.063 6656.42 830.512C6826.88 896.541 7083.94 982.302 7445.73 993.686" stroke="white" stroke-opacity="0.59" stroke-width="5" stroke-miterlimit="10"/>
<path d="M-102 2046.95C193.989 2138.03 544.319 2153.66 885.086 2038.45C1233.37 1920.66 1389.33 1703.61 1660.65 1529.96C2128.77 1230.33 2318.66 1025.11 2633.02 962.645C3045.05 880.755 3365.4 778.525 3693.19 672.803C4072.66 550.461 4177.02 454.606 4490.08 498.245C4767.86 536.951 5207.14 495.892 5456.3 456.048C5692.94 418.1 5711.68 426.828 6000.84 578.921C6340.85 757.653 6444.98 805.619 6670.16 894.795C6838.19 961.355 7091.22 1047.42 7451.87 1052.73" stroke="white" stroke-opacity="0.59" stroke-width="5" stroke-miterlimit="10"/>
<path d="M-102 2114.58C200.289 2209.98 535.515 2219.92 851.389 2112.68C1196.63 1995.42 1340.38 1775.33 1624.6 1596.59C2063.5 1320.49 2245.65 1110.03 2567.6 1084.3C3024.03 1047.8 3362.97 873.317 3720.21 743.689C4129.51 595.239 4266.65 402.162 4593 508.415C4865.61 597.44 5283.64 508.415 5512.31 480.941C5727.7 454.757 5747.58 467.128 6047.37 639.333C6389.73 836.129 6485.05 879.389 6683.9 959.989C6849.42 1027.16 7098.58 1113.3 7458.02 1112.76" stroke="white" stroke-opacity="0.59" stroke-width="5" stroke-miterlimit="10"/>
<path d="M-102 2184.4C206.891 2284.43 526.636 2288.22 817.768 2189.56C1159.9 2072.83 1291.27 1849.4 1588.55 1665.89C1998.39 1412.93 2178.03 1239.59 2502.1 1208.62C2995.41 1161.34 3360.85 970.842 3747.3 817.231C4186.73 642.673 4334.5 436.922 4695.99 521.241C4982.72 588.18 5360.67 524.125 5568.24 508.491C5762.46 493.843 5784.09 509.781 6093.81 702.478C6438.91 917.108 6525.12 956.042 6697.71 1027.84C6860.65 1095.69 7105.95 1181.75 7464.24 1175.38" stroke="white" stroke-opacity="0.59" stroke-width="5" stroke-miterlimit="10"/>
<path d="M-102 2258.62C213.418 2363.28 517.68 2361.23 784.07 2270.01C1123.17 2153.81 1241.94 1926.74 1552.5 1738.74C1932.43 1508.71 2110.33 1372.7 2436.68 1336.5C2967.03 1277.68 3358.87 1072.01 3774.32 894.416C4244.26 693.522 4404.25 479.423 4798.9 537.71C5098.99 582.033 5437.33 543.023 5624.25 539.608C5797.14 536.42 5820.75 555.849 6140.34 769.189C6488.31 1001.5 6565.35 1036.57 6711.45 1099.33C6871.81 1168.09 7113.69 1253.85 7470.39 1241.63" stroke="white" stroke-opacity="0.59" stroke-width="5" stroke-miterlimit="10"/>
<path d="M-102 2334.14C220.021 2443.43 508.8 2435.38 750.373 2352.2C1086.43 2236.46 1192.38 2005.29 1516.45 1813.35C1866.71 1605.85 2042.4 1507.42 2371.18 1466.13C2938.27 1394.94 3357.05 1174.85 3801.34 973.27C4302.24 746.117 4475.74 526.782 4901.81 555.849C5214.5 577.176 5514.05 563.439 5680.19 572.47C5831.67 580.591 5857.63 603.359 6186.79 837.647C6538.1 1087.57 6604.81 1119.44 6725.18 1172.57C6882.82 1242.47 7120.59 1327.77 7476.54 1309.64" stroke="white" stroke-opacity="0.59" stroke-width="5" stroke-miterlimit="10"/>
<path d="M-102 2416.33C226.624 2530.18 499.693 2515.76 716.676 2441C1049.47 2325.03 1142.45 2089.83 1480.4 1894.56C1800.83 1709.37 1974.4 1648.66 2305.76 1602.36C2909.27 1518.04 3355.38 1284.36 3828.05 1058.73C4359.32 805.315 4550.5 615.199 5004.42 580.591C5327.89 556.001 5590.4 590.457 5735.89 611.935C5866.21 631.213 5894.51 657.472 6233.01 912.63C6587.74 1180.24 6644.2 1208.62 6738.62 1252.26C6893.29 1323.83 7127.65 1408.15 7482.38 1384.16" stroke="white" stroke-opacity="0.59" stroke-width="5" stroke-miterlimit="10"/>
<path d="M-102 2497.69C233.151 2616.16 490.813 2595.82 683.055 2529.04C1012.74 2413.6 1092.05 2172.79 1444.35 1975.01C1734.88 1811.91 1906.25 1789.06 2240.26 1737.83C2880.13 1639.7 3353.79 1393.04 3855.45 1143.5C4417.76 863.678 4626.92 657.776 5107.71 604.649C5441.65 567.916 5667.59 616.261 5792.13 650.642C5901.35 681 5932.23 710.599 6279.76 986.931C6638.28 1271.99 6683.97 1297.57 6752.73 1331.34C6903.91 1405.57 7135.32 1487.76 7488.91 1457.93" stroke="white" stroke-opacity="0.59" stroke-width="5" stroke-miterlimit="10"/>
<path d="M-102 2579.13C239.526 2702.15 482.389 2675.97 649.357 2617.07C975.704 2502.17 1041.13 2254.53 1408.3 2055.45C1668.93 1914.14 1838.02 1929.47 2174.84 1873.31C2850.68 1760.6 3352.27 1501.42 3882.47 1228.2C4475.82 922.042 4703.58 700.049 5210.63 628.632C5556.33 579.984 5744.7 641.686 5848.14 689.348C5936.41 730.028 5969.57 763.649 6326.28 1061.23C6688.68 1363.82 6723.21 1386.82 6766.47 1410.35C6912.72 1489.96 7142.6 1567.45 7495.06 1531.78" stroke="white" stroke-opacity="0.59" stroke-width="5" stroke-miterlimit="10"/>
</svg>
